<svg width="84" height="53" viewBox="0 0 84 53" fill="none" xmlns="http://www.w3.org/2000/svg">
<path fill-rule="evenodd" clip-rule="evenodd" d="M1.5541 0.889765C2.31796 0.250475 3.46805 0.00012207 5 0.00012207H80C80.8014 0.000120044 81.4531 0.133081 81.9709 0.411164C82.4989 0.694693 82.8512 1.10962 83.079 1.60304C83.3013 2.08472 83.4022 2.63458 83.4512 3.19895C83.5 3.75973 83.5 4.37162 83.5 4.98675V49.5C83.5 50.1919 83.3613 50.7813 83.0831 51.2705C82.8036 51.7621 82.4011 52.1211 81.9246 52.3777C80.9949 52.8783 79.761 53 78.5 53H5C4.24053 53 3.58333 52.9687 3.02718 52.876C2.47127 52.7834 1.98452 52.6245 1.58828 52.3471C0.754927 51.7638 0.5 50.7935 0.5 49.5001V3.68473C0.5 2.52543 0.76544 1.54981 1.5541 0.889765ZM2.1959 1.65663C1.73456 2.04274 1.5 2.65942 1.5 3.68473V49.5001C1.5 50.7066 1.74507 51.2362 2.16172 51.5279C2.39048 51.688 2.71623 51.8104 3.19157 51.8896C3.66667 51.9688 4.25947 52 5 52H78.5C79.739 52 80.7551 51.8717 81.4504 51.4972C81.7864 51.3163 82.0402 51.0816 82.2138 50.7762C82.3887 50.4686 82.5 50.058 82.5 49.5V5.00012C82.5 4.36969 82.4996 3.79887 82.455 3.28557C82.4103 2.7718 82.3237 2.35292 82.171 2.02211C82.0238 1.70304 81.8136 1.46174 81.4978 1.29217C81.1719 1.11714 80.6986 1.00012 80 1.00012H5C3.53195 1.00012 2.68204 1.24977 2.1959 1.65663ZM9.00003 5.00012C9.00004 5.00012 9.00002 5.00012 9.00003 5.00012H76.5C77.077 5.00005 77.6017 5.14462 77.9786 5.52148C78.3554 5.89833 78.5 6.42301 78.5 7.00012V45.5001C78.5 46.0744 78.3574 46.7022 77.9466 47.1951C77.5225 47.7041 76.8703 48 76 48.0001H8C7.42294 48.0001 6.89826 47.8554 6.52145 47.4786C6.14462 47.1018 6 46.5772 6 46.0001V7.50012C6 6.92301 6.1446 6.27333 6.64645 5.77148C7.14829 5.26963 7.92297 5.00006 9.00003 5.00012ZM7.35355 6.47858C7.1054 6.72674 7 7.07712 7 7.50012V46.0001C7 46.423 7.10538 46.6483 7.22855 46.7715C7.35173 46.8946 7.5771 47.0001 8 47.0001C8.00002 47.0001 7.99998 47.0001 8 47.0001H76C76.6297 47.0001 76.9775 46.796 77.1784 46.5549C77.3926 46.2979 77.5 45.9258 77.5 45.5001V7.00012C77.5 6.57711 77.3946 6.35173 77.2714 6.22858C77.1483 6.10545 76.923 6.00007 76.5 6.00012H9C8.07707 6.00007 7.6017 6.23044 7.35355 6.47858ZM20.197 15.2213C21.1739 14.1746 22.6226 13.5 24.5 13.5C26.3774 13.5 27.8261 14.1746 28.803 15.2213C29.7731 16.2607 30.25 17.6367 30.25 19C30.25 20.3633 29.7731 21.7393 28.803 22.7787C27.8261 23.8254 26.3774 24.5 24.5 24.5C22.6226 24.5 21.1739 23.8254 20.197 22.7787C19.2269 21.7393 18.75 20.3633 18.75 19C18.75 17.6367 19.2269 16.2607 20.197 15.2213ZM20.928 22.0963C21.7011 22.9246 22.8774 23.5 24.5 23.5C26.1226 23.5 27.2989 22.9246 28.072 22.0963C28.8519 21.2607 29.25 20.1367 29.25 19C29.25 17.8633 28.8519 16.7393 28.072 15.9037C27.2989 15.0754 26.1226 14.5 24.5 14.5C22.8774 14.5 21.7011 15.0754 20.928 15.9037C20.1481 16.7393 19.75 17.8633 19.75 19C19.75 20.1367 20.1481 21.2607 20.928 22.0963ZM42.4589 13.9589C42.7166 13.7013 43.0874 13.5 43.5 13.5H69C69.4126 13.5 69.7834 13.7013 70.0411 13.9589C70.2987 14.2166 70.5 14.5874 70.5 15V19C70.5 19.4126 70.2987 19.7834 70.0411 20.0411C69.7834 20.2987 69.4126 20.5 69 20.5H43.5C43.0874 20.5 42.7166 20.2987 42.4589 20.0411C42.2013 19.7834 42 19.4126 42 19V15C42 14.5874 42.2013 14.2166 42.4589 13.9589ZM43.1661 14.6661C43.0487 14.7834 43 14.9126 43 15V19C43 19.0874 43.0487 19.2166 43.1661 19.3339C43.2834 19.4513 43.4126 19.5 43.5 19.5H69C69.0874 19.5 69.2166 19.4513 69.3339 19.3339C69.4513 19.2166 69.5 19.0874 69.5 19V15C69.5 14.9126 69.4513 14.7834 69.3339 14.6661C69.2166 14.5487 69.0874 14.5 69 14.5H43.5C43.4126 14.5 43.2834 14.5487 43.1661 14.6661ZM43.4817 25.5H69.5725L69.642 25.5206C69.8174 25.5725 70.0293 25.6485 70.1989 25.8117C70.3841 25.9899 70.4574 26.2093 70.4928 26.4155L70.4983 26.4478L70.4996 26.4805C70.5062 26.6503 70.5144 26.9758 70.2928 27.2226C70.0629 27.4785 69.7275 27.5018 69.4979 27.5H43.4718L43.4439 27.4968C43.2207 27.4716 42.9262 27.417 42.7196 27.1962C42.5004 26.9619 42.4937 26.6662 42.5001 26.4872C42.5033 26.2826 42.5328 25.9901 42.7558 25.7688C42.9712 25.5551 43.2617 25.5161 43.4635 25.5013L43.4817 25.5ZM43.5 26.5034C43.5 26.5044 43.5 26.5054 43.5 26.5064L43.4998 26.5189C43.4987 26.5492 43.4987 26.5706 43.4996 26.5855C43.4997 26.5879 43.4999 26.59 43.5 26.5918V26.5034ZM18.4434 30.0887C16.4935 31.6988 14.9823 34.2943 14.4959 38.064C14.4327 38.5535 14.6161 39.0044 15.0812 39.4396C15.5591 39.8867 16.3092 40.2877 17.284 40.6206C19.2277 41.2842 21.9092 41.625 24.6089 41.625C27.3091 41.625 29.971 41.2841 31.8766 40.6215C32.8328 40.289 33.5563 39.8899 34.0049 39.4483C34.4375 39.0226 34.5974 38.5805 34.5081 38.0894L34.5 38.0451V38C34.5 32.0487 29.9904 28.3569 25.2126 27.9986C22.8284 27.8198 20.3967 28.4757 18.4434 30.0887ZM35.4999 37.9569C35.4781 31.4334 30.4981 27.3922 25.2874 27.0014C22.6716 26.8052 19.9783 27.5243 17.8066 29.3176C15.6315 31.1137 14.0177 33.9557 13.5041 37.936C13.3899 38.8215 13.7609 39.5737 14.398 40.1698C15.0223 40.7539 15.9221 41.2123 16.9609 41.5669C19.0444 42.2783 21.8449 42.625 24.6089 42.625C27.3724 42.625 30.156 42.2784 32.205 41.566C33.2262 41.211 34.1073 40.7507 34.7064 40.161C35.3108 39.5662 35.641 38.8211 35.4999 37.9569ZM43.4817 32.5H69.5725L69.642 32.5206C69.8174 32.5725 70.0293 32.6485 70.1989 32.8117C70.3841 32.9899 70.4574 33.2093 70.4928 33.4155L70.4983 33.4478L70.4996 33.4805C70.5062 33.6503 70.5144 33.9758 70.2928 34.2226C70.063 34.4784 69.7277 34.5018 69.4981 34.5H43.4718L43.4439 34.4968C43.2207 34.4716 42.9262 34.417 42.7196 34.1962C42.5004 33.9619 42.4937 33.6662 42.5001 33.4872C42.5033 33.2826 42.5328 32.9901 42.7558 32.7688C42.9712 32.5551 43.2617 32.5161 43.4635 32.5013L43.4817 32.5ZM43.5 33.5034C43.5 33.5044 43.5 33.5054 43.5 33.5064L43.4998 33.5189C43.4987 33.5492 43.4987 33.5706 43.4996 33.5855C43.4997 33.5879 43.4999 33.59 43.5 33.5918V33.5034ZM43.4817 39H69.5725L69.642 39.0206C69.8174 39.0725 70.0293 39.1485 70.1989 39.3117C70.3841 39.4899 70.4574 39.7093 70.4928 39.9155L70.4983 39.9478L70.4996 39.9805C70.5062 40.1503 70.5144 40.4758 70.2928 40.7226C70.063 40.9784 69.7277 41.0018 69.4981 41H43.4718L43.4439 40.9968C43.2207 40.9716 42.9262 40.917 42.7196 40.6962C42.5004 40.4619 42.4937 40.1662 42.5001 39.9872C42.5033 39.7826 42.5328 39.4901 42.7558 39.2688C42.9712 39.0551 43.2617 39.0161 43.4635 39.0013L43.4817 39ZM43.5 40.0034C43.5 40.0044 43.5 40.0054 43.5 40.0064L43.4998 40.0189C43.4987 40.0492 43.4987 40.0706 43.4996 40.0855C43.4997 40.0879 43.4999 40.09 43.5 40.0918V40.0034Z" fill="url(#paint0_linear_242_15)"/>
<defs>
<linearGradient id="paint0_linear_242_15" x1="66.2927" y1="-10.7019" x2="30.9984" y2="53.3036" gradientUnits="userSpaceOnUse">
<stop stop-color="#F03B46"/>
<stop offset="1" stop-color="white"/>
</linearGradient>
</defs>
</svg>
