<svg width="62" height="75" viewBox="0 0 62 75" fill="none" xmlns="http://www.w3.org/2000/svg">
<path d="M25.5 64.0001H27H59C60.5 64.0001 61 63.5001 61 62.0001V3.50012C61 2.50012 60.5 1.50012 59.5 1.50012H15.5C13.8657 1.44773 13.5 2 13.5 3.00012V41.1873M25.5 64.0001C24.5 59.5001 21 59.5001 19.5 59.5001H16.5M25.5 64.0001V66.5001C25.5 67.5001 25 68.0001 24 68.0001H23.5M16.5 59.5001L19.5 48.5001C20.2321 43.6192 16.9143 41.2397 13.5 41.1873M16.5 59.5001H10M10 59.5001L7 48.5001C6.23214 43.637 9.91912 41.1323 13.5 41.1873M10 59.5001C5.11962 59.3692 2 59.5001 1 64.0001V66.5001C1 67.5001 1.5 68.0001 2.5 68.0001H3M3 68.0001V72.0001C3 73.5001 3.5 74.5001 5.5 74.5001H20.5C22.3741 74.4199 23.5 73.5001 23.5 72.0001V68.0001M3 68.0001H23.5M29.5 13.5H52.5M23 24H53M22 34.5H53M36 55.5001H50L52 53.5001V47.5001L50 45.5001H36L34 47.5001V53.5001L36 55.5001ZM23.5 13C23 13 23 13.5 23 13.5C23 14 23.5 14 23.5 14C23.5 14 24 14 24 13.5C24 13.5 24 13 23.5 13Z" stroke="url(#paint0_linear_45_33)"/>
<defs>
<linearGradient id="paint0_linear_45_33" x1="48.561" y1="-13.2446" x2="-8.85408" y2="41.3996" gradientUnits="userSpaceOnUse">
<stop stop-color="#F03B46"/>
<stop offset="1" stop-color="white"/>
</linearGradient>
</defs>
</svg>
