<svg width="51" height="69" viewBox="0 0 51 69" fill="none" xmlns="http://www.w3.org/2000/svg">
<path d="M4.1633 63.79V60.861C4.16331 59.8847 4.4866 59.8847 5.13315 59.8847H7.39613H8.68928M4.1633 63.79H1.57703C0.930469 63.79 0.607178 64.1158 0.607178 64.7664V67.0444C0.607178 67.3702 0.930463 67.6955 1.57703 67.6955H49.423C50.3929 67.6955 50.3929 67.3702 50.3929 66.7191V64.4411C50.3929 63.79 50.0608 63.7784 49.423 63.79H46.8368M4.1633 63.79H13.2152M46.8368 63.79V60.5356C46.8368 60.2102 46.8368 59.8847 46.1902 59.8847H44.8971M46.8368 63.79H37.7848M37.7848 63.79V60.861C37.7848 60.2102 37.7848 59.8847 39.0779 59.8847H41.3409C42.0134 59.8847 42.2196 59.8847 42.1751 59.5593M37.7848 63.79H13.2152M28.4096 25.3873H29.7027C30.3493 25.3873 30.3493 25.3873 30.3493 24.7364V23.4346C30.3493 22.7837 30.026 22.7837 29.3794 22.7837H26.4699C25.5 22.7837 25.5 22.7837 25.5 21.8074V16.9257M28.4096 25.3873H22.9138M28.4096 25.3873L31.4415 32.8726M28.4096 25.3873L19.321 32.8726M13.2152 63.79V60.861C13.2152 60.2102 13.2152 59.8847 12.5687 59.8847H8.68928M8.68928 59.8847L14.8378 44.2633M8.68928 59.8847L36.0554 44.2633M22.2672 25.3873H21.6206C20.6508 25.3873 20.3275 25.3873 20.3275 24.7364V23.4346C20.3275 22.7837 20.6508 22.7837 21.2973 22.7837H22.5905M22.2672 25.3873H22.9138M22.2672 25.3873L19.321 32.8726M22.9138 25.3873L31.4415 32.8726M31.4415 32.8726L14.8378 44.2633M31.4415 32.8726L36.0554 44.2633M14.8378 44.2633L42.1751 59.5593M14.8378 44.2633L19.321 32.8726M42.1751 59.5593C42.1554 59.4154 42.0866 59.2078 41.9875 58.9084L36.0554 44.2633M36.0554 44.2633L19.321 32.8726M21.9439 18.5529C18.7111 14.3221 22.2672 10.4167 25.5 10.4167C28.8633 10.4811 31.9657 14.3221 29.0561 18.5529M18.7111 21.8074C12.5687 13.6712 19.0343 5.86121 25.8233 5.86121C32.9355 5.86121 38.1081 15.2992 32.289 21.8074M15.4782 25.0626C6.38778 14.4406 14.8317 1.30457 25.5 1.30457C36.815 1.30457 44.3743 14.6926 35.5218 25.0626M25.5 16.9257C27.763 16.9257 27.763 13.6712 25.5 13.6712C23.237 13.6712 23.237 16.9257 25.5 16.9257Z" stroke="url(#paint0_linear_45_36)" stroke-linecap="round"/>
<defs>
<linearGradient id="paint0_linear_45_36" x1="40.0715" y1="-12.1015" x2="-11.6906" y2="32.8472" gradientUnits="userSpaceOnUse">
<stop stop-color="#F03B46"/>
<stop offset="1" stop-color="white"/>
</linearGradient>
</defs>
</svg>
