<svg width="138" height="138" viewBox="0 0 138 138" fill="none" xmlns="http://www.w3.org/2000/svg">
<path d="M21.4074 102.044V18.474C21.4074 16.3128 22.8503 14.8718 25.0147 14.8718H35.1154M21.4074 102.044L35.1154 89.0767M21.4074 102.044L8.42088 115.733M35.1154 89.0767L48.8233 102.765M35.1154 89.0767L44.4143 86.1949M48.8233 102.765L22.1289 129.421M48.8233 102.765L52.173 93.3993M22.1289 129.421L8.42088 115.733M22.1289 129.421L15.6356 135.905C10.5858 140.948 -3.84437 127.26 2.6491 121.496L8.42088 115.733M22.1289 129.421V132.303C22.1289 135.185 22.1289 136.625 25.0147 136.625H107.984C111.532 136.641 111.591 134.464 111.591 132.303V125.819M35.1154 14.8718V7.66743C35.1154 -0.977792 53.1522 -0.977536 53.1522 7.66743V10.5492M35.1154 14.8718H53.1522M35.1154 14.8718V24.2375C35.1154 30.0009 44.4945 30.0009 44.4945 24.2375V9.1083M53.1522 14.8718H108.706C110.148 14.8718 111.591 15.5923 111.591 17.7535V125.819M53.1522 14.8718V10.5492M53.1522 14.8718V25.6783M53.1522 10.5492L117.363 1.18351C120.971 0.463273 123.135 1.90407 123.856 4.78569L136.843 114.292C137.503 118.728 136.122 120.055 131.793 121.496L111.591 125.819M66.8601 117.894H52.4307M52.4307 127.26H66.8601M56.038 82.5927L44.4143 86.1949M56.038 82.5927L52.173 93.3993M56.038 82.5927H104.377M44.4143 86.1949L52.173 93.3993M104.377 73.2271H28.6221M28.6221 64.5818H55.3166M55.3166 55.2162H28.6221M55.3166 45.8505H28.6221M28.6221 37.2053H55.3166M69.0246 64.5818H62.5313V24.2375H102.934V64.5818H96.4405M69.0246 64.5818H96.4405M69.0246 64.5818C69.0246 52.3344 75.8785 46.2107 82.7325 46.2107M96.4405 64.5818C96.4405 52.3344 89.5865 46.2107 82.7325 46.2107M82.7325 46.2107C73.3534 46.2107 73.3534 32.8827 82.7325 32.8827C92.1117 32.8827 92.1117 46.2107 82.7325 46.2107ZM75.5178 127.26H102.934V113.571H75.5178V127.26Z" stroke="url(#paint0_linear_290_99)" stroke-width="0.7"/>
<defs>
<linearGradient id="paint0_linear_290_99" x1="108.804" y1="-26.4619" x2="2.85555" y2="96.2272" gradientUnits="userSpaceOnUse">
<stop stop-color="#F03B46"/>
<stop offset="1" stop-color="white"/>
</linearGradient>
</defs>
</svg>
