<svg width="142" height="138" viewBox="0 0 142 138" fill="none" xmlns="http://www.w3.org/2000/svg">
<path d="M11.416 126.882C7.94493 125.545 6.98833 124.082 6.64218 120.49V49.1229C6.64218 44.8614 8.76428 42.7318 12.4769 42.7318H54.9112M11.416 126.882H3.99004C0.80763 126.882 0.277202 127.946 1.86833 131.141C3.99004 135.402 6.11191 137 10.8856 137H16.7207M11.416 126.882H57.0333M128.11 126.882C133.529 126.844 135.006 126.348 135.006 120.49V49.1229C135.006 43.2638 132.884 42.7312 127.58 42.7312M128.11 126.882H138.188C140.31 126.882 141.437 127.946 140.841 129.544C139.249 133.804 135.536 137 130.232 137H79.8415M128.11 126.882H85.146M127.58 42.7312L131.293 39.0037C132.182 37.8872 132.606 37.0516 132.68 36.3399M127.58 42.7312L118.032 51.7859M45.8939 51.7859L43.2417 54.4489C42.2814 55.4129 41.7075 56.1831 41.7533 57.1111M45.8939 51.7859L54.9112 42.7318M45.8939 51.7859H16.1899C14.6692 51.8213 14.2479 52.2031 14.0682 53.3837V115.164C14.0682 116.761 14.0682 117.827 16.1899 117.827H66.0502M51.7286 68.8289L42.7113 59.2422C42.0808 58.3975 41.7835 57.7203 41.7533 57.1111M54.9112 42.7318L94.1629 3.31995C95.2597 2.15181 96.1009 1.48426 96.8154 1.18749M72.4153 117.827H124.928C126.721 117.644 127.58 117.294 127.58 115.697V54.4489C127.58 52.3179 127.049 51.7859 125.458 51.7859H118.032M118.032 51.7859L99.4672 70.9593M95.2237 75.22L77.19 93.3274M63.398 107.176L77.19 93.3274M16.7207 137V132.207M16.7207 137H23.0858M23.0858 137V132.207M23.0858 137H29.451M29.451 137V132.207M29.451 137H62.3375M41.7533 57.1111L79.6291 48.057M96.8154 1.18749C98.0316 0.682322 98.8805 1.25151 99.9976 2.25476L131.293 33.6777C132.217 34.6055 132.784 35.3537 132.68 36.3399M96.8154 1.18749L88.859 39.0029M88.859 39.0029L88.1245 42.7312C87.2677 45.394 86.7373 46.4592 84.0851 46.9918L79.6291 48.057M88.859 39.0029L132.68 36.3399M79.6291 48.057L77.19 93.3274M77.19 93.3274L55.9724 73.0888M44.8334 95.9903L68.1723 72.0237M60.7463 91.197L45.3638 106.642M40.0596 100.251L32.6336 107.707M85.146 126.882C83.9605 132.255 83.0601 134.883 79.8415 137M85.146 126.882H57.0333M79.8415 137H62.3375M57.0333 126.882C57.6788 133.016 59.7612 135.046 62.3375 137M98.4067 108.773H121.215M113.259 102.381H121.215" stroke="url(#paint0_linear_290_105)" stroke-width="0.7"/>
<defs>
<linearGradient id="paint0_linear_290_105" x1="111.975" y1="-26.4619" x2="6.51592" y2="99.2521" gradientUnits="userSpaceOnUse">
<stop stop-color="#F03B46"/>
<stop offset="1" stop-color="white"/>
</linearGradient>
</defs>
</svg>
