<svg width="151" height="98" viewBox="0 0 151 98" fill="none" xmlns="http://www.w3.org/2000/svg">
<path d="M89.3221 82.7296H6.25159C1.95483 82.7296 0.999904 79.3642 1 76.4797V7.24991C1.0001 2.92295 2.43235 0.999897 7.68384 1H116.535C120.354 1.00001 122.264 2.44228 122.264 6.28839V30.3265M89.3221 82.7296C98.3931 100.037 130.38 103.402 143.748 82.7295C154.251 66.4866 149.477 52.9223 144.225 44.7494C138.019 36.0956 131.335 31.7687 122.264 30.3265M89.3221 82.7296C86.92 78.9912 85.2725 75.0962 84.3189 71.1913M122.264 30.3265C118.548 29.9355 115.038 30.0118 111.761 30.4904M48.7417 34.6534V27.9227C48.7417 25.5189 47.7869 24.5574 44.9224 24.5574H14.8451C11.5032 24.5574 11.5032 25.5189 11.5032 27.9227V62.0569M48.7417 39.9418V62.0569M11.5032 62.0569V69.7491C11.5032 72.1529 12.9354 73.1144 14.3677 73.1144H27.2579M11.5032 62.0569C13.5016 57.582 15.23 55.4395 21.0515 55.3306M48.7417 62.0569V69.7491C48.7417 72.1529 48.2643 73.1144 45.3998 73.1144H32.9869M48.7417 62.0569C46.997 57.2254 44.057 55.6042 39.1934 55.36M30.1224 55.3262H21.5289C21.3668 55.3262 21.2077 55.3276 21.0515 55.3306M30.1224 55.3262H37.7611C38.2561 55.3262 38.7334 55.337 39.1934 55.36M30.1224 55.3262V73.1144M30.1224 55.3262C37.7462 56.0241 40.3393 43.0441 36.8063 35.8747M30.1224 55.3262C24.4852 55.8668 21.4139 48.1998 21.9269 41.3841M30.1224 73.1144H32.9869M30.1224 73.1144H27.2579M39.1934 55.36L32.9869 73.1144M21.0515 55.3306L27.2579 73.1144M36.8063 35.8747C35.4719 33.1669 33.2636 31.288 30.1224 31.288C24.898 31.288 22.3263 36.0781 21.9269 41.3841M36.8063 35.8747C32.0321 39.9418 28.4692 42.7945 21.9269 41.3841M111.761 30.4904V28.4035C111.13 26.5722 110.308 26.2904 108.419 26.4804H63.0642C60.9061 26.5602 60.2116 27.1249 60.1997 29.365V32.7303C60.1997 34.6534 60.8464 35.1728 63.0642 35.1341H98.6917M111.761 30.4904C106.851 31.2076 102.464 32.8282 98.6917 35.1341M98.6917 35.1341C94.6102 37.6291 91.2476 40.9262 88.7188 44.7494M88.7188 44.7494H63.0642C60.6771 44.7494 60.1997 45.2302 60.1997 47.1532V50.5186C60.1997 52.4416 61.1545 52.9224 63.0642 52.9224H84.8359M88.7188 44.7494C87.0507 47.2713 85.7454 50.022 84.8359 52.9224M84.8359 52.9224C83.827 56.1397 83.3051 59.5412 83.3152 63.0184M83.3152 63.0184H63.0642C60.6771 63.0184 60.1997 63.4991 60.1997 65.4222V68.7875C60.1997 70.2298 60.6771 71.1913 62.5868 71.1913H84.3189M83.3152 63.0184C83.3231 65.714 83.6506 68.4551 84.3189 71.1913M137.541 44.7494C143.067 51.9881 144.435 56.0995 144.703 63.4991C141.361 102.441 89.7996 99.0756 88.7188 63.4991C89.3221 41.3841 113.67 25.5189 135.154 42.3456M116.535 61.5761C113.67 61.5761 113.67 65.903 116.535 65.903M116.535 61.5761V46.6725M116.535 61.5761C117.861 61.5761 118.573 62.5032 118.671 63.4991M116.535 65.903V68.7875M116.535 65.903C118.073 65.903 118.786 64.6547 118.671 63.4991M118.671 63.4991H131.335M116.535 38.9803V43.7879M128.948 42.3456L126.561 45.7109M138.019 50.9993L134.199 53.4031M141.361 63.4991H136.109M138.019 75.999L134.199 73.5952M128.948 85.1335L126.561 81.2874M116.535 88.4988V83.6912M104.122 85.1335L106.509 81.2874M95.0511 75.999L99.3479 73.5952M92.6641 63.4991H96.9608M95.5286 50.9993L99.3479 53.4031M104.122 41.8648L106.509 45.7109" stroke="url(#paint0_linear_291_120)" stroke-width="0.7"/>
<defs>
<linearGradient id="paint0_linear_291_120" x1="119.11" y1="-18.3849" x2="54.876" y2="97.0636" gradientUnits="userSpaceOnUse">
<stop stop-color="#F03B46"/>
<stop offset="1" stop-color="white"/>
</linearGradient>
</defs>
</svg>
