<svg width="123" height="84" viewBox="0 0 123 84" fill="none" xmlns="http://www.w3.org/2000/svg">
<path d="M48.7412 34.6534V27.9227C48.7412 25.5189 47.7864 24.5574 44.9219 24.5574H14.8446C11.5027 24.5574 11.5027 25.5189 11.5027 27.9227V62.0569M48.7412 39.9418V62.0569M11.5027 62.0569V69.7491C11.5027 72.1529 12.9349 73.1144 14.3672 73.1144H27.2574M11.5027 62.0569C13.5011 57.582 15.2295 55.4395 21.051 55.3306M48.7412 62.0569V69.7491C48.7412 72.1529 48.2638 73.1144 45.3993 73.1144H32.9865M48.7412 62.0569C46.9966 57.2254 44.0565 55.6042 39.1929 55.36M30.1219 55.3262H21.5284C21.3663 55.3262 21.2072 55.3276 21.051 55.3306M30.1219 55.3262H37.7606C38.2557 55.3262 38.7329 55.337 39.1929 55.36M30.1219 55.3262V73.1144M30.1219 55.3262C37.7457 56.0241 40.3388 43.0441 36.8058 35.8747M30.1219 55.3262C24.4847 55.8668 21.4134 48.1998 21.9264 41.3841M30.1219 73.1144H32.9865M30.1219 73.1144H27.2574M39.1929 55.36L32.9865 73.1144M21.051 55.3306L27.2574 73.1144M36.8058 35.8747C35.4714 33.1669 33.2631 31.288 30.1219 31.288C24.8975 31.288 22.3258 36.0781 21.9264 41.3841M36.8058 35.8747C32.0316 39.9418 28.4688 42.7945 21.9264 41.3841M116.534 1H7.68335C2.43186 0.999897 0.999608 2.92295 0.999512 7.24991V76.4797C0.999415 79.3642 1.95435 82.7296 6.2511 82.7296H89.3217H116.534C120.5 82.7296 122.263 80.5 122.263 76.4797V6.28839C122.263 2.44228 120.354 1.00001 116.534 1ZM111.76 28.4035C111.76 26.4804 110 26.4804 108.418 26.4804H63.0637C60.9057 26.5602 60.2111 27.1249 60.1992 29.365V32.7303C60.1992 34.6534 60.8459 35.1728 63.0637 35.1341H108.418C111.76 35.1341 111.76 34.6534 111.76 32.7303V28.4035ZM63.0637 44.7494C60.6766 44.7494 60.1992 45.2302 60.1992 47.1532V50.5186C60.1992 52.4416 61.1541 52.9224 63.0637 52.9224H84.8354H108.418C110.5 52.9224 111.76 52.9224 111.76 50.5186V47.1532C111.76 44.7494 110.5 44.7494 108.418 44.7494H63.0637ZM63.0637 63.0184C60.6766 63.0184 60.1992 63.4991 60.1992 65.4222V68.7875C60.1992 70.2298 60.6766 71.1913 62.5863 71.1913H108.418C111 71.1913 111.76 70.9551 111.76 68.7875V65.4222C111.76 63.5 110.993 63.131 108.418 63.0184H63.0637Z" stroke="url(#paint0_linear_356_19)" stroke-width="0.7"/>
<defs>
<linearGradient id="paint0_linear_356_19" x1="97.1233" y1="-15.5033" x2="41.1653" y2="80.6412" gradientUnits="userSpaceOnUse">
<stop stop-color="#F03B46"/>
<stop offset="1" stop-color="white"/>
</linearGradient>
</defs>
</svg>
