<svg width="119" height="131" viewBox="0 0 119 131" fill="none" xmlns="http://www.w3.org/2000/svg">
<path d="M0.999512 30V118.5C0.999512 124 3.99951 130 9.49951 130H66.4995C71.9995 130 76.9995 127 76.9995 121V84M76.9995 84H111C116.5 84 118 81.5 118 77V27.5C118 24 118 22 113.5 22H101.5M76.9995 84H70.4995M95.4995 22H76.9995M70.4995 84V106.5M70.4995 84H46.7495H22.9995C19.9995 84 18.4995 81.5 18.4995 77.5V74.5M70.4995 112V119.5C70.4995 121.5 68.4995 123.5 65.4995 123.5H12.4995C8.99951 123.5 7.49951 121.5 7.49951 119.5V12C7.49951 9 8.99951 8 11.9995 8H19.9995C21.9995 8 21.9995 8.5 22.9995 10C22.9995 10 22.9995 10 23.9995 11.5C24.9995 13 25.287 13.3847 26.9995 13.5H50.4995C52.4995 13.5 52.9995 13 53.9995 11.5L54.9995 10C55.4995 9 56.4995 8 57.9995 8H66.4995C68.4995 8 69.9995 9.5 69.9995 12V22M69.9995 22H25.4995C21.1099 22.9282 19.4421 24.22 18.4995 28.5V60.5M69.9995 22H76.9995M76.9995 22V11.5C76.9995 6 73.9995 1 66.4995 1H11.9995C3.49951 1 0.999512 6.5 0.999512 11.5V24M18.4995 60.5H41.9995C49.9995 60.5 49.9995 74.5 41.9995 74.5H18.4995M18.4995 60.5V74.5M65.9995 34.5V41.5M75.9995 34.5V41.5M83.9995 34.5V41.5M98.4995 34.5V41.5M105.5 34.5V41.5M72.9995 76.5V68.5M72.9995 68.5V62C72.9995 60 73.9995 60 75.4995 60H77.9995C82.9995 60 82.9995 68.5 77.9995 68.5H72.9995ZM83.4995 76.5L85.8209 70.6071M96.9995 76.5L94.4995 70.6071M94.4995 70.6071L89.9995 60L85.8209 70.6071M94.4995 70.6071H85.8209M98.4995 60L103 67.5M103 67.5L108 60M103 67.5V76.5M33.4995 31.5C29.9995 31.5 29.9995 31.5 29.9995 35V42C29.9995 45 29.9995 45 32.9995 45H45.9995C49.4995 45 49.4995 45 49.4995 42V35C49.4995 31.5 49.4995 31.5 46.4995 31.5H33.4995ZM28.4995 95.5H49.4995C56.9995 95.5 56.9995 106.5 49.4995 106.5H28.4995C21.9995 106.5 21.4995 95.5 28.4995 95.5Z" stroke="url(#paint0_linear_356_22)" stroke-width="0.7"/>
<defs>
<linearGradient id="paint0_linear_356_22" x1="93.7434" y1="-25.0484" x2="-7.71335" y2="81.5098" gradientUnits="userSpaceOnUse">
<stop stop-color="#F03B46"/>
<stop offset="1" stop-color="white"/>
</linearGradient>
</defs>
</svg>
