<svg width="415" height="484" viewBox="0 0 415 484" fill="none" xmlns="http://www.w3.org/2000/svg">
<path d="M264 286.5V48C264 41.4487 262.404 37.2029 259 36.0021M264 286.5L196.5 399M264 286.5L208.5 317.5C197.5 324 196.5 332.5 196.5 343V399M196.5 399L58.4995 480C52.7437 483.08 48.7239 484.077 46 482.619M63.4995 336L101 314M128 297.5L237.5 234.5M63.4995 288.5L208.5 205.5M63.4995 243L126 207M63.4995 196L207 113.5M150 192L222 151M56.8609 150C58.7101 148.667 60.7519 147.349 62.9995 146L249.5 38C253.544 35.7755 256.689 35.1867 259 36.0021M56.8609 150L17 125.5M56.8609 150C47.3527 156.851 42.9353 164.093 41.8017 178M17 125.5L207.5 15.4996C213 12.4996 217 12.4996 222 15.4996L259 36.0021M17 125.5C5.5 131.5 1 141 1 154M1 154V446.5C1.00037 453 2 458.5 6 461L46 482.619M1 154L41.8017 178M46 482.619C41.9392 480.446 40.7585 472.817 40.9995 458.5L41.4995 185.656C41.5122 182.893 41.61 180.351 41.8017 178M385 164.472C382.593 166.461 378.672 165.971 373 163L307 125.5C296.373 118.179 294.393 112.7 295 101.5V27.9996C295 22.5097 296.35 19.3345 298.5 17.8809M385 164.472C387.049 162.778 388 159.287 388 154V82.4996C388 75.4766 386.695 70.3184 383.629 66M385 164.472L411 150C414 148.5 414.5 144 414.5 141V60.9996C414.208 56.4617 413.429 53.2221 411.871 50.5M298.5 17.8809C301.245 16.0249 305.294 16.976 309.5 19.4996L375.5 58.4996C379.004 60.8355 381.674 63.2471 383.629 66M298.5 17.8809L322.5 2.9996C328 -0.499957 330.5 0 335.5 2.9996L403 41.9996C407.273 44.9376 410.084 47.3786 411.871 50.5M383.629 66L411.871 50.5M274.5 240C270 240 270 246.5 274.5 246.5C279 246.5 279 240 274.5 240ZM289.5 231C285 231 285 237.5 289.5 237.5C294 237.5 294 231 289.5 231ZM304.5 221.5C300 221.5 300 228 304.5 228C309 228 309 221.5 304.5 221.5ZM319 213C314.5 213 314.5 219.5 319 219.5C323.5 219.5 323.5 213 319 213ZM334 204.5C329.5 204.5 329.5 211 334 211C338.5 211 338.5 204.5 334 204.5ZM340.5 191C336 191 336 197.5 340.5 197.5C345 197.5 345 191 340.5 191ZM340.5 174C336 174 336 180.5 340.5 180.5C345 180.5 345 174 340.5 174ZM340.5 156.5C336 156.5 336 163 340.5 163C345 163 345 156.5 340.5 156.5ZM336 90L331.5 105.5L349.5 116.5L346.5 94.5C349.833 93.3333 355.902 89.6055 351.5 77.5C347.5 66.5 338.5 65 333.5 67.5C330.167 69.6667 325.2 78 336 90Z" stroke="url(#paint0_linear_357_30)"/>
<defs>
<linearGradient id="paint0_linear_357_30" x1="328.774" y1="-96.9148" x2="-51.3229" y2="280.123" gradientUnits="userSpaceOnUse">
<stop stop-color="#F03B46"/>
<stop offset="1" stop-color="white"/>
</linearGradient>
</defs>
</svg>
