<svg width="129" height="131" viewBox="0 0 129 131" fill="none" xmlns="http://www.w3.org/2000/svg">
<path d="M92.1664 102.357V122.102M92.1664 102.357L100.755 93.801M92.1664 102.357L76.972 116.837M92.1664 122.102V128.026C92.1664 130 92.1664 130 88.8633 130H3.64251L1 128.026V12.1888C1 9.55612 1.26538 8.92149 3.64251 8.89796H9.58814M92.1664 122.102H97.4514C100.713 121.978 100.755 120.786 100.755 118.153V93.801M100.755 93.801L121.234 74.0561M76.972 116.837L70.3657 110.255M76.972 116.837L65.0807 122.102L70.3657 110.255M70.3657 110.255L92.1664 88.5357M92.1664 88.5357L101.415 79.3214M92.1664 88.5357V31.2755M101.415 79.3214L113.967 66.8163M101.415 79.3214V4.29082C101.415 2.31633 100.755 1 97.4514 1H13.5519C10.2479 0.999953 9.58814 1 9.58814 3.63265V8.89796M113.967 66.8163L121.234 74.0561M113.967 66.8163L119.252 61.551C123.876 56.9439 131.143 64.1837 126.519 68.7908L121.234 74.0561M107.361 95.1173L122.555 80.6377C124.761 78.3956 125.198 78.0051 123.876 76.6888L121.234 74.0561M7.60626 118.811C8.70731 116.617 12.8913 111.177 20.8188 106.964C22.5805 105.867 25.1789 105.648 21.4794 113.546C17.7799 121.444 20.7244 118.811 22.8007 117.495C25.223 115.959 31.1246 112.361 35.3526 110.255C36.6738 109.816 38.2593 109.992 34.0313 114.204C29.8033 118.416 31.3888 120.128 32.7101 119.469C38.4355 117.276 50.8112 113.283 54.5107 114.862M7.60626 91.1684H84.8995M84.8995 82.6122H7.60626M25.4432 74.0561H84.8995M34.0313 43.7806H84.8995M46.5832 35.2245H63.0989M92.1664 31.2755L69.7051 8.89796M92.1664 31.2755H69.7051V26.6684M69.7051 8.89796H9.58814M69.7051 8.89796V18.1122M69.7051 18.1122H38.6557C36.0132 18.1122 36.0132 18.1122 36.0132 20.7449C36.0132 23.3776 36.0132 24.0357 36.0132 24.0357C36.0132 26.0102 36.0132 26.6684 38.6557 26.6684H69.7051M69.7051 18.1122V26.6684M18.1763 18.1122C6.28501 18.1122 6.28501 35.2245 18.1763 35.2245C30.0676 35.2245 30.0676 18.1122 18.1763 18.1122ZM12.2306 52.3367H45.262C47.9045 52.3367 48.5651 52.9949 48.5651 55.6275V62.2092C48.5651 64.1837 48.5651 65.5 45.262 65.5H12.2306C9.58814 65.5 9.58814 64.8418 9.58814 62.2092V55.6275C9.63162 53.0047 9.58814 52.3367 12.2306 52.3367ZM80.2751 52.3367C82.9176 52.3367 83.5783 52.9949 83.5783 55.6275V62.2092C83.5783 64.1837 83.5783 65.5 80.2751 65.5H60.4564C57.8139 65.5 57.1532 64.1837 57.1532 62.2092V55.6275C57.1532 53.6531 58.4745 52.3367 60.4564 52.3367H80.2751Z" stroke="url(#paint0_linear_501_32)" stroke-width="0.7"/>
<defs>
<linearGradient id="paint0_linear_501_32" x1="101.671" y1="-25.0484" x2="0.958211" y2="89.7689" gradientUnits="userSpaceOnUse">
<stop stop-color="#F03B46"/>
<stop offset="1" stop-color="white"/>
</linearGradient>
</defs>
</svg>
