<svg width="113" height="131" viewBox="0 0 113 131" fill="none" xmlns="http://www.w3.org/2000/svg">
<path d="M92.1664 122.102V128.026C92.1664 130 92.1664 130 88.8633 130H3.6425L1 128.026V12.1888C1 9.55612 1.26538 8.92149 3.6425 8.89796H9.58814M92.1664 122.102H97.4514C100.713 121.978 100.755 120.786 100.755 118.153V114.255M92.1664 122.102V103.166M7.60626 118.811C8.70731 116.617 12.8913 111.177 20.8188 106.964C22.5805 105.867 25.1789 105.648 21.4794 113.546C17.7799 121.444 20.7244 118.811 22.8007 117.495C25.223 115.959 31.1246 112.361 35.3526 110.255C36.6738 109.816 38.2593 109.992 34.0313 114.204C29.8033 118.416 31.3888 120.128 32.7101 119.469C38.4355 117.276 50.8112 113.283 54.5107 114.862M7.60626 91.1684H54.007M51.8967 82.6122H7.60626M25.4432 74.0561H53.4157M34.0313 43.7806H84.8995M46.5832 35.2245H63.0989M92.1664 31.2755L69.7051 8.89796M92.1664 31.2755H69.7051V26.6684M92.1664 31.2755V68.7078M69.7051 8.89796H9.58814M69.7051 8.89796V18.1122M9.58814 8.89796V3.63265C9.58814 1 10.2479 0.999953 13.5519 1H97.4514C100.755 1 101.415 2.31633 101.415 4.29082V103.915M69.7051 18.1122H38.6557C36.0132 18.1122 36.0132 18.1122 36.0132 20.7449C36.0132 23.3776 36.0132 24.0357 36.0132 24.0357C36.0132 26.0102 36.0132 26.6684 38.6557 26.6684H69.7051M69.7051 18.1122V26.6684M83.5783 61.8584V55.6275C83.5783 52.9949 82.9176 52.3367 80.2751 52.3367H60.4564C58.4745 52.3367 57.1532 53.6531 57.1532 55.6275V62.2092C57.1532 64.1837 57.5 65.5 59.4435 65.5M93 104C92.1664 105 92.1664 105.5 93 106.5L100.755 114.255M93 104L96 101M93 104L92.1664 103.166M96 101C97 100 98 100.5 98.5 101L101.415 103.915M96 101L91.5 96.5M88.5 99.5C81.5 105 72 106.5 63 101.5M88.5 99.5C89.3796 98.8089 90.8933 97.3566 91.5 96.5M88.5 99.5L92.1664 103.166M91.5 96.5C98.8832 86.0767 97.5898 75.7477 92.1664 68.7078M61 100C49.5 90.5 48.5651 75 60 65C71.0311 55.9489 85.1022 59.5382 92.1664 68.7078M80.5 66C92.1664 70.5 97 87.5 84.5 96C64 109 47.5 82 63 69C68.1088 65.159 71.2805 64.4142 77.5 65M85 85.5C88 77 79 68.5 71 71.5M101.415 103.915L102.5 105L111.5 114C114 117 108.5 122.102 106 119.5L100.755 114.255M18.1763 18.1122C6.28501 18.1122 6.28501 35.2245 18.1763 35.2245C30.0676 35.2245 30.0676 18.1122 18.1763 18.1122ZM12.2306 52.3367H45.262C47.9045 52.3367 48.5651 52.9949 48.5651 55.6275V62.2092C48.5651 64.1837 48.5651 65.5 45.262 65.5H12.2306C9.58814 65.5 9.58814 64.8418 9.58814 62.2092V55.6275C9.63162 53.0047 9.58814 52.3367 12.2306 52.3367Z" stroke="url(#paint0_linear_501_33)" stroke-width="0.7"/>
<defs>
<linearGradient id="paint0_linear_501_33" x1="89.0961" y1="-25.0484" x2="-12.4825" y2="76.2913" gradientUnits="userSpaceOnUse">
<stop stop-color="#F03B46"/>
<stop offset="1" stop-color="white"/>
</linearGradient>
</defs>
</svg>
