<svg width="186" height="199" viewBox="0 0 186 199" fill="none" xmlns="http://www.w3.org/2000/svg">
<path d="M23.4431 113.04V188.23C23.4431 189.079 23.6548 190.141 24.7134 191.84M23.4431 113.04L1 99.6592M23.4431 113.04C23.4431 107.963 24.7708 105.216 30.2183 101.705M1 99.6592V173.149C1 176.76 1 177.943 3.329 179.096L24.7134 191.84M1 99.6592C1 94.5618 2.69382 90.3138 7.56354 88.1895M24.7134 191.84C25.5603 192.69 27.2541 193.54 30.43 191.84L79.339 163.545M93.7364 198L104.958 148.723L79.339 163.545M93.7364 198L73.6224 186.318L79.339 163.545M93.7364 198L135.023 130.882L178.851 105.606C184.567 101.571 185.084 98.6346 184.991 93.7121V19.7972C184.991 16.2655 182.238 13.9517 181.603 14.0625M30.2183 101.705C30.9236 101.251 31.6979 100.783 32.5473 100.296L178.215 15.7617C179.486 15.1245 180.756 14.4873 181.603 14.0625M30.2183 101.705L7.56354 88.1895M7.56354 88.1895L113.639 26.8065M120.626 23.1957L131.424 16.399M138.623 12.7882L156.408 1.95585C158.525 0.681396 159.16 0.681373 161.277 1.95585L181.603 14.0625M36.7819 114.74L171.864 35.9396M156.196 61.8523L36.7819 131.094M63.8829 150.635L72.5637 152.122L69.3878 141.714L77.01 130.67L67.694 135.13L63.8829 125.784L60.0718 139.59L49.4855 145.75L57.5311 148.511L55.2021 161.255L63.8829 150.635ZM106.017 126.634L114.486 127.908L111.31 117.501L119.567 105.394L109.616 109.854L105.381 101.571L101.994 115.377L91.1957 121.961L99.2413 124.722L96.7006 137.466L106.017 126.634ZM147.939 101.571L156.196 103.058L153.232 94.3493L161.277 80.5434L151.538 85.4286L147.092 76.7202L143.492 90.9509L132.906 97.1105L140.74 100.084L138.411 112.616L147.939 101.571Z" stroke="url(#paint0_linear_92_1305)"/>
<defs>
<linearGradient id="paint0_linear_92_1305" x1="146.854" y1="-38.7794" x2="-7.79479" y2="128.486" gradientUnits="userSpaceOnUse">
<stop stop-color="#F03B46"/>
<stop offset="1" stop-color="white"/>
</linearGradient>
</defs>
</svg>
